<?xml version="1.0" standalone="no"?>
<!DOCTYPE svg PUBLIC "-//W3C//DTD SVG 20010904//EN"
 "http://www.w3.org/TR/2001/REC-SVG-20010904/DTD/svg10.dtd">
<svg version="1.0" xmlns="http://www.w3.org/2000/svg"
 width="122.000000pt" height="69.000000pt" viewBox="0 0 122.000000 69.000000"
 preserveAspectRatio="xMidYMid meet">

<g transform="translate(0.000000,69.000000) scale(0.100000,-0.100000)"
fill="#000000" stroke="none">
<path d="M465 629 c-293 -28 -495 -171 -454 -322 37 -138 281 -247 554 -247
187 0 346 39 453 110 259 173 77 415 -348 460 -52 5 -102 9 -110 8 -8 0 -51
-4 -95 -9z m350 -62 c30 -8 50 -19 50 -28 0 -21 -85 -74 -177 -109 -168 -65
-238 -64 -238 2 0 40 41 132 67 147 24 15 230 7 298 -12z m-442 -29 c-39 -44
-85 -119 -140 -231 -31 -61 -57 -114 -59 -116 -2 -2 -22 9 -44 24 -99 69 -107
175 -19 249 45 39 103 67 189 92 83 24 106 18 73 -18z m662 -79 c75 -70 82
-134 20 -206 -53 -62 -224 -141 -285 -131 -19 3 -16 9 25 63 24 33 74 117 110
188 37 70 70 127 76 127 5 0 29 -18 54 -41z m-350 -166 c20 -19 14 -67 -16
-125 -32 -63 -55 -72 -167 -65 -99 5 -232 33 -232 48 0 14 65 58 131 88 153
69 251 88 284 54z"/>
</g>
</svg>
